<svg xmlns="http://www.w3.org/2000/svg" viewBox="0 0 1235 1480" style="width: 20px; height: 20px; vertical-align: middle;margin-bottom:2px;">
    <g transform="rotate(180 617.5 740)">
        <path fill="currentColor" d="M1192 111q34 78 43 160l-473 -101q-36 -76 -43 -159zM1192 413q34 76 43 159l-369 -78v151l326 69q34 76 43 160l-369 -79v542q-82 -45 -147 -123v-450l-148 -31v678q-85 -49 -147 -124v-586l-330 -70q-34 -76 -43 -159l373 79v-190l-399 -85q-36 -78 -43 -160l418 89q52 11 82 55l77 114q12 16 12 41v167l148 31v-301z" />
    </g>
</svg>
